<svg width="580" height="168" viewBox="0 0 580 168" fill="none" xmlns="http://www.w3.org/2000/svg">
<g filter="url(#filter0_d_253_23035)">
<g clip-path="url(#clip0_253_23035)">
<rect x="11.9863" y="21.1963" width="528" height="117" rx="6" fill="white"/>
<mask id="path-2-inside-1_253_23035" fill="white">
<path d="M11.9863 21.1963H275.986V138.196H11.9863V21.1963Z"/>
</mask>
<path d="M11.9863 21.1963H275.986V138.196H11.9863V21.1963Z" fill="white"/>
<path d="M274.986 21.1963V138.196H276.986V21.1963H274.986Z" fill="#D9D9D9" mask="url(#path-2-inside-1_253_23035)"/>
<path opacity="0.8" d="M24.2103 40.0683V38.6283H32.7383V40.0683H29.2663V50.1963H27.6983V40.0683H24.2103ZM37.5856 42.3083V43.6843H36.9136C35.4896 43.6843 34.6096 44.5483 34.6096 46.0523V50.1963H33.1056V42.3883H34.5136L34.6096 43.5723C34.9296 42.7563 35.7136 42.2123 36.7856 42.2123C37.0576 42.2123 37.2816 42.2443 37.5856 42.3083ZM40.9717 50.3883C39.2917 50.3883 38.2997 49.4443 38.2997 48.0203C38.2997 46.5803 39.3717 45.6843 41.2117 45.5403L43.6757 45.3483V45.1243C43.6757 43.8123 42.8917 43.3483 41.8357 43.3483C40.5717 43.3483 39.8517 43.9083 39.8517 44.8523H38.5397C38.5397 43.2203 39.8837 42.1483 41.8997 42.1483C43.8357 42.1483 45.1477 43.1723 45.1477 45.2843V50.1963H43.8677L43.7077 48.9323C43.3077 49.8283 42.2357 50.3883 40.9717 50.3883ZM41.4037 49.2203C42.8277 49.2203 43.6917 48.2923 43.6917 46.8203V46.4043L41.6917 46.5643C40.3637 46.6923 39.8197 47.2043 39.8197 47.9723C39.8197 48.8043 40.4277 49.2203 41.4037 49.2203ZM49.1101 50.1963L45.9581 42.3723H47.5581L49.2701 46.7403C49.5421 47.4763 49.7661 48.1323 49.8941 48.6123C50.0221 48.1003 50.2781 47.4283 50.5501 46.7403L52.2941 42.3723H53.8621L50.5981 50.1963H49.1101ZM58.0753 50.3883C55.7713 50.3883 54.1873 48.7243 54.1873 46.2923C54.1873 43.8443 55.7393 42.1483 58.0113 42.1483C60.2353 42.1483 61.6913 43.6843 61.6913 46.0043V46.5643L55.6433 46.5803C55.7553 48.2283 56.6193 49.1403 58.1073 49.1403C59.2753 49.1403 60.0433 48.6603 60.2993 47.7643H61.7073C61.3233 49.4443 60.0113 50.3883 58.0753 50.3883ZM58.0113 43.4123C56.6993 43.4123 55.8673 44.1963 55.6753 45.5723H60.1873C60.1873 44.2763 59.3393 43.4123 58.0113 43.4123ZM64.9072 50.1963H63.4032V38.4203H64.9072V50.1963ZM74.8722 50.3883C72.5682 50.3883 70.9842 48.7243 70.9842 46.2923C70.9842 43.8443 72.5362 42.1483 74.8082 42.1483C77.0322 42.1483 78.4882 43.6843 78.4882 46.0043V46.5643L72.4402 46.5803C72.5522 48.2283 73.4162 49.1403 74.9042 49.1403C76.0722 49.1403 76.8402 48.6603 77.0962 47.7643H78.5042C78.1202 49.4443 76.8082 50.3883 74.8722 50.3883ZM74.8082 43.4123C73.4962 43.4123 72.6642 44.1963 72.4722 45.5723H76.9842C76.9842 44.2763 76.1362 43.4123 74.8082 43.4123ZM80.6712 50.1963H78.9432L81.6792 46.3243L78.9592 42.3723H80.7032L82.6872 45.2843L84.6232 42.3723H86.3352L83.6152 46.3243L86.2872 50.1963H84.5432L82.5912 47.3323L80.6712 50.1963ZM87.59 53.7003V42.3723H88.95L89.062 43.7803C89.59 42.7083 90.646 42.1483 91.894 42.1483C94.134 42.1483 95.526 43.8283 95.526 46.2283C95.526 48.6123 94.214 50.4043 91.894 50.4043C90.646 50.4043 89.606 49.8763 89.094 48.9163V53.7003H87.59ZM89.11 46.2923C89.11 47.8923 90.038 49.0443 91.574 49.0443C93.11 49.0443 94.022 47.8923 94.022 46.2923C94.022 44.6763 93.11 43.5243 91.574 43.5243C90.038 43.5243 89.11 44.6603 89.11 46.2923ZM100.56 50.3883C98.2557 50.3883 96.6717 48.7243 96.6717 46.2923C96.6717 43.8443 98.2237 42.1483 100.496 42.1483C102.72 42.1483 104.176 43.6843 104.176 46.0043V46.5643L98.1277 46.5803C98.2397 48.2283 99.1037 49.1403 100.592 49.1403C101.76 49.1403 102.528 48.6603 102.784 47.7643H104.192C103.808 49.4443 102.496 50.3883 100.56 50.3883ZM100.496 43.4123C99.1837 43.4123 98.3517 44.1963 98.1597 45.5723H102.672C102.672 44.2763 101.824 43.4123 100.496 43.4123ZM107.36 50.1963H105.856V42.3723H107.216L107.376 43.5723C107.872 42.6763 108.864 42.1483 109.968 42.1483C112.032 42.1483 112.976 43.4123 112.976 45.4123V50.1963H111.472V45.7483C111.472 44.1643 110.736 43.5243 109.584 43.5243C108.176 43.5243 107.36 44.5323 107.36 46.0523V50.1963ZM114.325 47.9243H115.765C115.765 48.7243 116.373 49.2043 117.365 49.2043C118.421 49.2043 119.029 48.7723 119.029 48.0523C119.029 47.5243 118.773 47.2043 117.957 46.9963L116.581 46.6763C115.189 46.3403 114.533 45.6523 114.533 44.5003C114.533 43.0603 115.749 42.1483 117.477 42.1483C119.189 42.1483 120.309 43.1083 120.341 44.5963H118.901C118.869 43.8123 118.341 43.3163 117.429 43.3163C116.485 43.3163 115.957 43.7323 115.957 44.4523C115.957 44.9803 116.341 45.3323 117.109 45.5243L118.485 45.8603C119.813 46.1803 120.469 46.7883 120.469 47.9563C120.469 49.4443 119.189 50.3883 117.333 50.3883C115.493 50.3883 114.325 49.4123 114.325 47.9243ZM125.513 50.3883C123.209 50.3883 121.625 48.7243 121.625 46.2923C121.625 43.8443 123.177 42.1483 125.449 42.1483C127.673 42.1483 129.129 43.6843 129.129 46.0043V46.5643L123.081 46.5803C123.193 48.2283 124.057 49.1403 125.545 49.1403C126.713 49.1403 127.481 48.6603 127.737 47.7643H129.145C128.761 49.4443 127.449 50.3883 125.513 50.3883ZM125.449 43.4123C124.137 43.4123 123.305 44.1963 123.113 45.5723H127.625C127.625 44.2763 126.777 43.4123 125.449 43.4123Z" fill="#1E1E1E"/>
<path opacity="0.8" d="M27.5423 100.582V99.3503C25.7783 99.2523 24.5883 98.2443 24.4763 96.7043H25.5123C25.5683 97.6843 26.3383 98.3423 27.5423 98.4403V94.5483L26.9963 94.4083C25.4283 94.0303 24.6023 93.1483 24.6023 91.7763C24.6023 90.2223 25.7643 89.1443 27.5423 89.0043V87.7863H28.2843V89.0043C29.9083 89.1163 30.9723 90.0963 31.1123 91.6783H30.1043C30.0063 90.6283 29.3623 90.0123 28.2843 89.9003V93.7503L28.9003 93.9043C30.4823 94.2963 31.2803 95.1783 31.2803 96.5223C31.2803 98.1323 30.1183 99.2103 28.2843 99.3503V100.582H27.5423ZM27.1783 93.4843L27.5423 93.5683V89.9143C26.3523 90.0403 25.5963 90.7403 25.5963 91.7623C25.5963 92.6443 26.1143 93.2183 27.1783 93.4843ZM28.6903 94.8283L28.2843 94.7303V98.4403C29.5163 98.3143 30.2863 97.6143 30.2863 96.5783C30.2863 95.6683 29.7683 95.0803 28.6903 94.8283ZM34.409 90.0823H32.365V89.1723H35.375V99.1963H34.409V90.0823ZM37.3208 94.1843C37.3208 91.0763 38.8468 88.9763 41.3388 88.9763C43.8168 88.9763 45.3428 91.0763 45.3428 94.1843C45.3428 97.3063 43.8448 99.3783 41.3388 99.3783C38.8188 99.3783 37.3208 97.3063 37.3208 94.1843ZM38.3148 94.1843C38.3148 96.7883 39.4208 98.4683 41.3388 98.4683C43.2568 98.4683 44.3628 96.7883 44.3628 94.1843C44.3628 91.5663 43.2568 89.9003 41.3388 89.9003C39.4208 89.9003 38.3148 91.5663 38.3148 94.1843ZM46.8774 94.1843C46.8774 91.0763 48.4034 88.9763 50.8954 88.9763C53.3734 88.9763 54.8994 91.0763 54.8994 94.1843C54.8994 97.3063 53.4014 99.3783 50.8954 99.3783C48.3754 99.3783 46.8774 97.3063 46.8774 94.1843ZM47.8714 94.1843C47.8714 96.7883 48.9774 98.4683 50.8954 98.4683C52.8134 98.4683 53.9194 96.7883 53.9194 94.1843C53.9194 91.5663 52.8134 89.9003 50.8954 89.9003C48.9774 89.9003 47.8714 91.5663 47.8714 94.1843Z" fill="#303030"/>
<path opacity="0.8" d="M223.542 100.582V99.3503C221.778 99.2523 220.588 98.2443 220.476 96.7043H221.512C221.568 97.6843 222.338 98.3423 223.542 98.4403V94.5483L222.996 94.4083C221.428 94.0303 220.602 93.1483 220.602 91.7763C220.602 90.2223 221.764 89.1443 223.542 89.0043V87.7863H224.284V89.0043C225.908 89.1163 226.972 90.0963 227.112 91.6783H226.104C226.006 90.6283 225.362 90.0123 224.284 89.9003V93.7503L224.9 93.9043C226.482 94.2963 227.28 95.1783 227.28 96.5223C227.28 98.1323 226.118 99.2103 224.284 99.3503V100.582H223.542ZM223.178 93.4843L223.542 93.5683V89.9143C222.352 90.0403 221.596 90.7403 221.596 91.7623C221.596 92.6443 222.114 93.2183 223.178 93.4843ZM224.69 94.8283L224.284 94.7303V98.4403C225.516 98.3143 226.286 97.6143 226.286 96.5783C226.286 95.6683 225.768 95.0803 224.69 94.8283ZM231.417 93.8203H230.619V93.1203L233.713 90.0683H228.911V89.1723H234.987V89.9843L231.991 92.9663C233.867 93.0643 235.211 94.2543 235.211 96.0743C235.211 98.0623 233.755 99.3643 231.725 99.3643C229.751 99.3643 228.421 98.1463 228.421 96.1443H229.415C229.415 97.5863 230.311 98.4543 231.725 98.4543C233.223 98.4543 234.189 97.5023 234.189 96.0463C234.189 94.6743 233.209 93.8203 231.417 93.8203ZM239.878 99.3643C237.862 99.3643 236.574 98.1043 236.574 96.1303H237.582C237.582 97.5723 238.464 98.4403 239.892 98.4403C241.404 98.4403 242.384 97.4323 242.384 95.9483C242.384 94.5483 241.474 93.4423 239.892 93.4423C238.968 93.4423 238.128 93.8623 237.582 94.4643L236.784 94.2123L237.988 89.1723H242.832V90.0963H238.716L237.96 93.2463C238.52 92.7983 239.248 92.5463 240.032 92.5463C242.118 92.5463 243.406 94.0443 243.406 95.9203C243.406 97.9363 241.978 99.3643 239.878 99.3643ZM244.75 94.1843C244.75 91.0763 246.276 88.9763 248.768 88.9763C251.246 88.9763 252.772 91.0763 252.772 94.1843C252.772 97.3063 251.274 99.3783 248.768 99.3783C246.248 99.3783 244.75 97.3063 244.75 94.1843ZM245.744 94.1843C245.744 96.7883 246.85 98.4683 248.768 98.4683C250.686 98.4683 251.792 96.7883 251.792 94.1843C251.792 91.5663 250.686 89.9003 248.768 89.9003C246.85 89.9003 245.744 91.5663 245.744 94.1843ZM254.307 94.1843C254.307 91.0763 255.833 88.9763 258.325 88.9763C260.803 88.9763 262.329 91.0763 262.329 94.1843C262.329 97.3063 260.831 99.3783 258.325 99.3783C255.805 99.3783 254.307 97.3063 254.307 94.1843ZM255.301 94.1843C255.301 96.7883 256.407 98.4683 258.325 98.4683C260.243 98.4683 261.349 96.7883 261.349 94.1843C261.349 91.5663 260.243 89.9003 258.325 89.9003C256.407 89.9003 255.301 91.5663 255.301 94.1843Z" fill="#303030"/>
<rect x="23.9863" y="111.196" width="240" height="12" rx="6" fill="#CDCDCD"/>
<rect x="23.9863" y="111.196" width="150.626" height="12" rx="6" fill="#2986EB"/>
<rect width="264" height="117" transform="translate(275.986 21.1963)" fill="white"/>
<path opacity="0.8" d="M290.898 50.1963H289.33V38.6283H293.698C296.178 38.6283 297.65 39.9403 297.65 42.1003C297.65 43.7003 296.85 44.8523 295.41 45.3163L297.762 50.1963H296.018L293.858 45.6203H290.898V50.1963ZM290.898 40.0363V44.2283H293.714C295.17 44.2283 296.002 43.4443 296.002 42.1163C296.002 40.7723 295.138 40.0363 293.698 40.0363H290.898ZM302.357 50.3883C300.053 50.3883 298.469 48.7243 298.469 46.2923C298.469 43.8443 300.021 42.1483 302.293 42.1483C304.517 42.1483 305.973 43.6843 305.973 46.0043V46.5643L299.925 46.5803C300.037 48.2283 300.901 49.1403 302.389 49.1403C303.557 49.1403 304.325 48.6603 304.581 47.7643H305.989C305.605 49.4443 304.293 50.3883 302.357 50.3883ZM302.293 43.4123C300.981 43.4123 300.149 44.1963 299.957 45.5723H304.469C304.469 44.2763 303.621 43.4123 302.293 43.4123ZM309.156 50.1963H307.652V42.3723H309.012L309.172 43.5723C309.668 42.6763 310.66 42.1483 311.764 42.1483C313.828 42.1483 314.772 43.4123 314.772 45.4123V50.1963H313.268V45.7483C313.268 44.1643 312.532 43.5243 311.38 43.5243C309.972 43.5243 309.156 44.5323 309.156 46.0523V50.1963ZM316.344 46.2763C316.344 43.8603 318.072 42.1643 320.424 42.1643C322.76 42.1643 324.488 43.8603 324.488 46.2763C324.488 48.6923 322.76 50.3883 320.424 50.3883C318.072 50.3883 316.344 48.6923 316.344 46.2763ZM317.864 46.2763C317.864 47.9083 318.904 49.0443 320.424 49.0443C321.928 49.0443 322.984 47.9083 322.984 46.2763C322.984 44.6443 321.928 43.5083 320.424 43.5083C318.904 43.5083 317.864 44.6443 317.864 46.2763ZM327.985 50.1963L324.833 42.3723H326.433L328.145 46.7403C328.417 47.4763 328.641 48.1323 328.769 48.6123C328.897 48.1003 329.153 47.4283 329.425 46.7403L331.169 42.3723H332.737L329.473 50.1963H327.985ZM335.862 50.3883C334.182 50.3883 333.19 49.4443 333.19 48.0203C333.19 46.5803 334.262 45.6843 336.102 45.5403L338.566 45.3483V45.1243C338.566 43.8123 337.782 43.3483 336.726 43.3483C335.462 43.3483 334.742 43.9083 334.742 44.8523H333.43C333.43 43.2203 334.774 42.1483 336.79 42.1483C338.726 42.1483 340.038 43.1723 340.038 45.2843V50.1963H338.758L338.598 48.9323C338.198 49.8283 337.126 50.3883 335.862 50.3883ZM336.294 49.2203C337.718 49.2203 338.582 48.2923 338.582 46.8203V46.4043L336.582 46.5643C335.254 46.6923 334.71 47.2043 334.71 47.9723C334.71 48.8043 335.318 49.2203 336.294 49.2203ZM344.204 50.1963H342.7V43.6363H341.164V42.3723H342.7V39.9243H344.204V42.3723H345.74V43.6363H344.204V50.1963ZM347.826 40.5163C347.282 40.5163 346.834 40.0683 346.834 39.5243C346.834 38.9643 347.282 38.5323 347.826 38.5323C348.37 38.5323 348.818 38.9643 348.818 39.5243C348.818 40.0683 348.37 40.5163 347.826 40.5163ZM347.09 50.1963V42.3723H348.594V50.1963H347.09ZM350.265 46.2763C350.265 43.8603 351.993 42.1643 354.345 42.1643C356.681 42.1643 358.409 43.8603 358.409 46.2763C358.409 48.6923 356.681 50.3883 354.345 50.3883C351.993 50.3883 350.265 48.6923 350.265 46.2763ZM351.785 46.2763C351.785 47.9083 352.825 49.0443 354.345 49.0443C355.849 49.0443 356.905 47.9083 356.905 46.2763C356.905 44.6443 355.849 43.5083 354.345 43.5083C352.825 43.5083 351.785 44.6443 351.785 46.2763ZM361.578 50.1963H360.074V42.3723H361.434L361.594 43.5723C362.09 42.6763 363.082 42.1483 364.186 42.1483C366.25 42.1483 367.194 43.4123 367.194 45.4123V50.1963H365.69V45.7483C365.69 44.1643 364.954 43.5243 363.802 43.5243C362.394 43.5243 361.578 44.5323 361.578 46.0523V50.1963ZM368.544 47.9243H369.984C369.984 48.7243 370.592 49.2043 371.584 49.2043C372.64 49.2043 373.248 48.7723 373.248 48.0523C373.248 47.5243 372.992 47.2043 372.176 46.9963L370.8 46.6763C369.408 46.3403 368.752 45.6523 368.752 44.5003C368.752 43.0603 369.968 42.1483 371.696 42.1483C373.408 42.1483 374.528 43.1083 374.56 44.5963H373.12C373.088 43.8123 372.56 43.3163 371.648 43.3163C370.704 43.3163 370.176 43.7323 370.176 44.4523C370.176 44.9803 370.56 45.3323 371.328 45.5243L372.704 45.8603C374.032 46.1803 374.688 46.7883 374.688 47.9563C374.688 49.4443 373.408 50.3883 371.552 50.3883C369.712 50.3883 368.544 49.4123 368.544 47.9243ZM383.019 50.3883C381.339 50.3883 380.347 49.4443 380.347 48.0203C380.347 46.5803 381.419 45.6843 383.259 45.5403L385.723 45.3483V45.1243C385.723 43.8123 384.939 43.3483 383.883 43.3483C382.619 43.3483 381.899 43.9083 381.899 44.8523H380.587C380.587 43.2203 381.931 42.1483 383.947 42.1483C385.883 42.1483 387.195 43.1723 387.195 45.2843V50.1963H385.915L385.755 48.9323C385.355 49.8283 384.283 50.3883 383.019 50.3883ZM383.451 49.2203C384.875 49.2203 385.739 48.2923 385.739 46.8203V46.4043L383.739 46.5643C382.411 46.6923 381.867 47.2043 381.867 47.9723C381.867 48.8043 382.475 49.2203 383.451 49.2203ZM390.781 50.1963H389.277V42.3723H390.637L390.797 43.5723C391.293 42.6763 392.285 42.1483 393.389 42.1483C395.453 42.1483 396.397 43.4123 396.397 45.4123V50.1963H394.893V45.7483C394.893 44.1643 394.157 43.5243 393.005 43.5243C391.597 43.5243 390.781 44.5323 390.781 46.0523V50.1963ZM401.617 50.3883C399.345 50.3883 397.969 48.6923 397.969 46.3083C397.969 43.9083 399.361 42.1483 401.681 42.1483C402.881 42.1483 403.889 42.6763 404.417 43.6363V38.4203H405.905V50.1963H404.561L404.433 48.7723C403.921 49.8443 402.865 50.3883 401.617 50.3883ZM401.921 49.0283C403.457 49.0283 404.401 47.8923 404.401 46.2603C404.401 44.6603 403.457 43.5083 401.921 43.5083C400.385 43.5083 399.489 44.6603 399.489 46.2603C399.489 47.8763 400.385 49.0283 401.921 49.0283ZM413.953 50.1803H412.449V38.4203H413.953V43.5723C414.449 42.7243 415.393 42.1483 416.609 42.1483C418.609 42.1483 419.569 43.4123 419.569 45.4123V50.1963H418.065V45.7483C418.065 44.1643 417.313 43.5243 416.193 43.5243C414.737 43.5243 413.953 44.5803 413.953 45.9243V50.1803ZM421.14 46.2763C421.14 43.8603 422.868 42.1643 425.22 42.1643C427.556 42.1643 429.284 43.8603 429.284 46.2763C429.284 48.6923 427.556 50.3883 425.22 50.3883C422.868 50.3883 421.14 48.6923 421.14 46.2763ZM422.66 46.2763C422.66 47.9083 423.7 49.0443 425.22 49.0443C426.724 49.0443 427.78 47.9083 427.78 46.2763C427.78 44.6443 426.724 43.5083 425.22 43.5083C423.7 43.5083 422.66 44.6443 422.66 46.2763ZM436.17 42.3723H437.658V50.1963H436.314L436.154 49.0123C435.706 49.8283 434.666 50.3883 433.514 50.3883C431.69 50.3883 430.666 49.1563 430.666 47.2363V42.3723H432.17V46.7403C432.17 48.4203 432.89 49.0603 434.042 49.0603C435.418 49.0603 436.17 48.1803 436.17 46.5003V42.3723ZM439.044 47.9243H440.484C440.484 48.7243 441.092 49.2043 442.084 49.2043C443.14 49.2043 443.748 48.7723 443.748 48.0523C443.748 47.5243 443.492 47.2043 442.676 46.9963L441.3 46.6763C439.908 46.3403 439.252 45.6523 439.252 44.5003C439.252 43.0603 440.468 42.1483 442.196 42.1483C443.908 42.1483 445.028 43.1083 445.06 44.5963H443.62C443.588 43.8123 443.06 43.3163 442.148 43.3163C441.204 43.3163 440.676 43.7323 440.676 44.4523C440.676 44.9803 441.06 45.3323 441.828 45.5243L443.204 45.8603C444.532 46.1803 445.188 46.7883 445.188 47.9563C445.188 49.4443 443.908 50.3883 442.052 50.3883C440.212 50.3883 439.044 49.4123 439.044 47.9243ZM447.592 40.5163C447.048 40.5163 446.6 40.0683 446.6 39.5243C446.6 38.9643 447.048 38.5323 447.592 38.5323C448.136 38.5323 448.584 38.9643 448.584 39.5243C448.584 40.0683 448.136 40.5163 447.592 40.5163ZM446.856 50.1963V42.3723H448.36V50.1963H446.856ZM452.047 50.1963H450.543V42.3723H451.903L452.063 43.5723C452.559 42.6763 453.551 42.1483 454.655 42.1483C456.719 42.1483 457.663 43.4123 457.663 45.4123V50.1963H456.159V45.7483C456.159 44.1643 455.423 43.5243 454.271 43.5243C452.863 43.5243 452.047 44.5323 452.047 46.0523V50.1963ZM459.25 46.0843C459.25 43.8763 460.674 42.1483 462.946 42.1483C464.21 42.1483 465.186 42.7243 465.682 43.7003L465.794 42.3723H467.138V49.8763C467.138 52.3403 465.618 53.9083 463.218 53.9083C461.09 53.9083 459.634 52.7083 459.346 50.7243H460.85C461.042 51.8763 461.906 52.5483 463.218 52.5483C464.69 52.5483 465.65 51.5883 465.65 50.1003V48.5323C465.138 49.4443 464.114 49.9883 462.882 49.9883C460.658 49.9883 459.25 48.2763 459.25 46.0843ZM460.754 46.0523C460.754 47.5243 461.666 48.6763 463.138 48.6763C464.658 48.6763 465.586 47.5883 465.586 46.0523C465.586 44.5483 464.69 43.4603 463.154 43.4603C461.65 43.4603 460.754 44.6123 460.754 46.0523Z" fill="#1E1E1E"/>
<path opacity="0.8" d="M291.542 100.582V99.3503C289.778 99.2523 288.588 98.2443 288.476 96.7043H289.512C289.568 97.6843 290.338 98.3423 291.542 98.4403V94.5483L290.996 94.4083C289.428 94.0303 288.602 93.1483 288.602 91.7763C288.602 90.2223 289.764 89.1443 291.542 89.0043V87.7863H292.284V89.0043C293.908 89.1163 294.972 90.0963 295.112 91.6783H294.104C294.006 90.6283 293.362 90.0123 292.284 89.9003V93.7503L292.9 93.9043C294.482 94.2963 295.28 95.1783 295.28 96.5223C295.28 98.1323 294.118 99.2103 292.284 99.3503V100.582H291.542ZM291.178 93.4843L291.542 93.5683V89.9143C290.352 90.0403 289.596 90.7403 289.596 91.7623C289.596 92.6443 290.114 93.2183 291.178 93.4843ZM292.69 94.8283L292.284 94.7303V98.4403C293.516 98.3143 294.286 97.6143 294.286 96.5783C294.286 95.6683 293.768 95.0803 292.69 94.8283ZM298.409 90.0823H296.365V89.1723H299.375V99.1963H298.409V90.0823ZM307.789 99.1963H301.181V98.3983L304.387 95.5983C306.235 93.9883 306.711 93.2883 306.711 92.0983C306.711 90.7403 305.899 89.9143 304.569 89.9143C303.183 89.9143 302.273 90.9223 302.231 92.4763H301.223C301.279 90.3763 302.609 88.9903 304.583 88.9903C306.473 88.9903 307.733 90.2083 307.733 92.0423C307.733 93.4983 307.075 94.4643 305.073 96.2143L302.735 98.2583H307.789V99.1963ZM309.182 94.1843C309.182 91.0763 310.708 88.9763 313.2 88.9763C315.678 88.9763 317.204 91.0763 317.204 94.1843C317.204 97.3063 315.706 99.3783 313.2 99.3783C310.68 99.3783 309.182 97.3063 309.182 94.1843ZM310.176 94.1843C310.176 96.7883 311.282 98.4683 313.2 98.4683C315.118 98.4683 316.224 96.7883 316.224 94.1843C316.224 91.5663 315.118 89.9003 313.2 89.9003C311.282 89.9003 310.176 91.5663 310.176 94.1843ZM318.739 94.1843C318.739 91.0763 320.265 88.9763 322.757 88.9763C325.235 88.9763 326.761 91.0763 326.761 94.1843C326.761 97.3063 325.263 99.3783 322.757 99.3783C320.237 99.3783 318.739 97.3063 318.739 94.1843ZM319.733 94.1843C319.733 96.7883 320.839 98.4683 322.757 98.4683C324.675 98.4683 325.781 96.7883 325.781 94.1843C325.781 91.5663 324.675 89.9003 322.757 89.9003C320.839 89.9003 319.733 91.5663 319.733 94.1843Z" fill="#303030"/>
<path opacity="0.8" d="M487.542 100.582V99.3503C485.778 99.2523 484.588 98.2443 484.476 96.7043H485.512C485.568 97.6843 486.338 98.3423 487.542 98.4403V94.5483L486.996 94.4083C485.428 94.0303 484.602 93.1483 484.602 91.7763C484.602 90.2223 485.764 89.1443 487.542 89.0043V87.7863H488.284V89.0043C489.908 89.1163 490.972 90.0963 491.112 91.6783H490.104C490.006 90.6283 489.362 90.0123 488.284 89.9003V93.7503L488.9 93.9043C490.482 94.2963 491.28 95.1783 491.28 96.5223C491.28 98.1323 490.118 99.2103 488.284 99.3503V100.582H487.542ZM487.178 93.4843L487.542 93.5683V89.9143C486.352 90.0403 485.596 90.7403 485.596 91.7623C485.596 92.6443 486.114 93.2183 487.178 93.4843ZM488.69 94.8283L488.284 94.7303V98.4403C489.516 98.3143 490.286 97.6143 490.286 96.5783C490.286 95.6683 489.768 95.0803 488.69 94.8283ZM495.417 93.8203H494.619V93.1203L497.713 90.0683H492.911V89.1723H498.987V89.9843L495.991 92.9663C497.867 93.0643 499.211 94.2543 499.211 96.0743C499.211 98.0623 497.755 99.3643 495.725 99.3643C493.751 99.3643 492.421 98.1463 492.421 96.1443H493.415C493.415 97.5863 494.311 98.4543 495.725 98.4543C497.223 98.4543 498.189 97.5023 498.189 96.0463C498.189 94.6743 497.209 93.8203 495.417 93.8203ZM503.878 99.3643C501.862 99.3643 500.574 98.1043 500.574 96.1303H501.582C501.582 97.5723 502.464 98.4403 503.892 98.4403C505.404 98.4403 506.384 97.4323 506.384 95.9483C506.384 94.5483 505.474 93.4423 503.892 93.4423C502.968 93.4423 502.128 93.8623 501.582 94.4643L500.784 94.2123L501.988 89.1723H506.832V90.0963H502.716L501.96 93.2463C502.52 92.7983 503.248 92.5463 504.032 92.5463C506.118 92.5463 507.406 94.0443 507.406 95.9203C507.406 97.9363 505.978 99.3643 503.878 99.3643ZM508.75 94.1843C508.75 91.0763 510.276 88.9763 512.768 88.9763C515.246 88.9763 516.772 91.0763 516.772 94.1843C516.772 97.3063 515.274 99.3783 512.768 99.3783C510.248 99.3783 508.75 97.3063 508.75 94.1843ZM509.744 94.1843C509.744 96.7883 510.85 98.4683 512.768 98.4683C514.686 98.4683 515.792 96.7883 515.792 94.1843C515.792 91.5663 514.686 89.9003 512.768 89.9003C510.85 89.9003 509.744 91.5663 509.744 94.1843ZM518.307 94.1843C518.307 91.0763 519.833 88.9763 522.325 88.9763C524.803 88.9763 526.329 91.0763 526.329 94.1843C526.329 97.3063 524.831 99.3783 522.325 99.3783C519.805 99.3783 518.307 97.3063 518.307 94.1843ZM519.301 94.1843C519.301 96.7883 520.407 98.4683 522.325 98.4683C524.243 98.4683 525.349 96.7883 525.349 94.1843C525.349 91.5663 524.243 89.9003 522.325 89.9003C520.407 89.9003 519.301 91.5663 519.301 94.1843Z" fill="#303030"/>
<rect x="287.986" y="111.196" width="240" height="12" rx="6" fill="#CDCDCD"/>
<rect x="287.986" y="111.196" width="150.626" height="12" rx="6" fill="#F0830B"/>
</g>
</g>
<defs>
<filter id="filter0_d_253_23035" x="0.886328" y="0.0962887" width="578.2" height="167.2" filterUnits="userSpaceOnUse" color-interpolation-filters="sRGB">
<feFlood flood-opacity="0" result="BackgroundImageFix"/>
<feColorMatrix in="SourceAlpha" type="matrix" values="0 0 0 0 0 0 0 0 0 0 0 0 0 0 0 0 0 0 127 0" result="hardAlpha"/>
<feMorphology radius="7" operator="dilate" in="SourceAlpha" result="effect1_dropShadow_253_23035"/>
<feOffset dx="14" dy="4"/>
<feGaussianBlur stdDeviation="9.05"/>
<feComposite in2="hardAlpha" operator="out"/>
<feColorMatrix type="matrix" values="0 0 0 0 0 0 0 0 0 0 0 0 0 0 0 0 0 0 0.05 0"/>
<feBlend mode="normal" in2="BackgroundImageFix" result="effect1_dropShadow_253_23035"/>
<feBlend mode="normal" in="SourceGraphic" in2="effect1_dropShadow_253_23035" result="shape"/>
</filter>
<clipPath id="clip0_253_23035">
<rect x="11.9863" y="21.1963" width="528" height="117" rx="6" fill="white"/>
</clipPath>
</defs>
</svg>
